<?xml version="1.0" encoding="UTF-8"?>
<svg width="70" height="70" xmlns="http://www.w3.org/2000/svg"><g fill="none" fill-rule="evenodd"><rect fill="#F7D169" width="70" height="70" rx="18"/><g fill="#17341A" fill-rule="nonzero" stroke="#17341A" stroke-width="1.125"><path d="M47.647 39.061h-6.34a.38.38 0 0 0-.255.666 2.983 2.983 0 0 1 .247 4.203 2.963 2.963 0 0 1-4.191.248 2.983 2.983 0 0 1 0-4.45.381.381 0 0 0-.25-.667h-5.965v-5.25a3.695 3.695 0 0 0 5.174-.8 3.719 3.719 0 0 0-.799-5.188 3.694 3.694 0 0 0-4.375 0v-5.581a.38.38 0 0 0-.38-.381H16.846A3.855 3.855 0 0 0 13 25.725v27.422A3.851 3.851 0 0 0 16.846 57H44.18a3.851 3.851 0 0 0 3.846-3.853V39.442a.38.38 0 0 0-.38-.38ZM13.759 25.737a3.095 3.095 0 0 1 3.087-3.096h13.288v6.092a.38.38 0 0 0 .675.24 2.94 2.94 0 0 1 4.146-.415 2.96 2.96 0 0 1 .414 4.157 2.94 2.94 0 0 1-4.56 0 .379.379 0 0 0-.675.24v6.106h-5.122a3.745 3.745 0 0 0-.94-5.202 3.722 3.722 0 0 0-5.187.942 3.747 3.747 0 0 0 0 4.26h-5.126V25.737Zm16.39 30.51H16.86a3.09 3.09 0 0 1-3.102-3.08V39.822h5.965c.045-.001.09-.01.133-.027h.037a.325.325 0 0 0 .107-.08.348.348 0 0 0 .057-.088.084.084 0 0 0 0-.022.38.38 0 0 0 .023-.126v-.023a.503.503 0 0 0-.023-.103.116.116 0 0 0 0-.038.291.291 0 0 0-.053-.08.102.102 0 0 0-.027-.03 2.983 2.983 0 0 1-.247-4.203 2.963 2.963 0 0 1 4.192-.248 2.983 2.983 0 0 1 0 4.45l-.023.031a.25.25 0 0 0-.053.077l-.02.041a.49.49 0 0 0 0 .103v.023a.38.38 0 0 0 .023.126v.03c.016.03.035.058.057.084l.035.03c.022.021.048.038.076.05a.116.116 0 0 0 .037 0 .378.378 0 0 0 .133.026h5.96v5.14a3.718 3.718 0 0 0-5.18.949 3.741 3.741 0 0 0 .946 5.196 3.716 3.716 0 0 0 4.235 0v5.135Zm17.118-3.1a3.09 3.09 0 0 1-3.082 3.092H30.897v-5.977a.42.42 0 0 0-.027-.137.159.159 0 0 0 0-.035.352.352 0 0 0-.05-.08l-.03-.03a.407.407 0 0 0-.083-.057h-.027a.378.378 0 0 0-.125-.023h-.034a.408.408 0 0 0-.099 0h-.045a.434.434 0 0 0-.076.05s-.023 0-.03.026a2.963 2.963 0 0 1-4.192.248 2.983 2.983 0 0 1-.247-4.203 2.963 2.963 0 0 1 4.438 0 .42.42 0 0 0 .11.08h.042a.265.265 0 0 0 .095 0h.027a.378.378 0 0 0 .125-.023h.027a.407.407 0 0 0 .113-.088.324.324 0 0 0 .05-.076v-.038a.381.381 0 0 0 .026-.133v-5.92h5.126a3.741 3.741 0 0 0 .946 5.195 3.718 3.718 0 0 0 5.181-.948 3.743 3.743 0 0 0 0-4.247h5.13v13.324Z"/><path d="m57.986 27.92-.001-.002-3.797-13.13a3.837 3.837 0 0 0-4.748-2.637l-.009.002-13.136 3.807a.38.38 0 0 0-.258.468l1.758 6.11a.38.38 0 0 0 .334.27.38.38 0 0 0 .38-.212 2.994 2.994 0 0 1 1.853-1.576 2.968 2.968 0 0 1 3.678 2.03 2.978 2.978 0 0 1-2.024 3.688 2.962 2.962 0 0 1-2.414-.343.379.379 0 0 0-.57.427l1.762 6.09a.38.38 0 0 0 .469.264h.002l5.182-1.523a3.786 3.786 0 0 0 3.615 4.854 3.782 3.782 0 0 0 2.498-6.62l5.163-1.497a.38.38 0 0 0 .263-.47Zm-6.406 1.49a.38.38 0 0 0-.27.328.381.381 0 0 0 .194.38 3.023 3.023 0 0 1-.607 5.555 3.01 3.01 0 0 1-3.728-2.063 3.027 3.027 0 0 1 .265-2.311.382.382 0 0 0-.334-.568.473.473 0 0 0-.102 0l-5.585 1.626-1.42-4.95c1.951.66 4.066-.39 4.725-2.346a3.74 3.74 0 0 0-2.341-4.738 3.722 3.722 0 0 0-4.085 1.184l-1.42-4.907 12.768-3.697a3.082 3.082 0 0 1 3.819 2.11v.003L57.14 27.8l-5.559 1.61Z"/></g></g></svg>