<?xml version="1.0" encoding="UTF-8"?>
<svg width="42" height="38" xmlns="http://www.w3.org/2000/svg"><g stroke="#000" fill="none" fill-rule="evenodd" stroke-linecap="round" stroke-linejoin="round"><path d="M37.522 26.463v4.39c0 3.397-2.724 6.147-6.087 6.147H4.478C2.557 37 1 35.428 1 33.488v-22.83c0-1.94 1.557-3.512 3.478-3.512h26.957c3.363 0 6.087 2.75 6.087 6.146v4.39" stroke-width="1.5"/><path d="M41 23.17c0 1.822-1.346 3.293-3.009 3.293h-7.024c-1.663 0-3.01-1.471-3.01-3.293v-2.195c0-1.82 1.347-3.293 3.01-3.293h7.024c1.663 0 3.009 1.474 3.009 3.293v2.195Z" stroke-width="1.5"/><path d="M33.174 22.073c0 .485-.39.878-.87.878a.874.874 0 0 1-.87-.878c0-.485.39-.878.87-.878s.87.393.87.878Z" stroke-width="1.739"/><path stroke-width="1.5" d="M32.095 7.182 30.565 1 7.956 7.146M4.478 10.658h1.739M9.696 10.658h1.739M14.913 10.658h1.739M20.13 10.658h1.74M25.348 10.658h1.739M30.565 10.658h1.739M4.478 33.488h1.739M9.696 33.488h1.739M14.913 33.488h1.739M20.13 33.488h1.74M25.348 33.488h1.739M30.565 33.488h1.739"/></g></svg>