<?xml version="1.0" encoding="UTF-8"?>
<svg width="125" height="125" xmlns="http://www.w3.org/2000/svg"><g fill="none" fill-rule="evenodd"><rect fill="#F7D169" width="125" height="125" rx="35"/><g stroke="#17341A" stroke-linecap="round" stroke-linejoin="round" stroke-width="2.826"><path d="m40 96 5.625-5.652L51.25 96l5.625-5.652L62.5 96l5.625-5.652L73.75 96l5.625-5.652L85 96V31l-5.625 5.652L73.75 31l-5.625 5.652L62.5 31l-5.625 5.652L51.25 31l-5.625 5.652L40 31zM48.438 47.957h22.5M48.438 56.435h11.25M48.438 64.913h11.25M48.438 73.391h8.437M72.344 79.043v2.827M72.344 59.261v2.826"/><path d="M68.125 74.804c0 2.34 1.89 4.24 4.219 4.24 2.329 0 4.219-1.9 4.219-4.24 0-2.34-1.89-4.239-4.22-4.239-2.328 0-4.218-1.899-4.218-4.239s1.89-4.239 4.219-4.239c2.329 0 4.219 1.9 4.219 4.24"/></g></g></svg>