<?xml version="1.0" encoding="UTF-8"?>
<svg width="37" height="41" xmlns="http://www.w3.org/2000/svg"><g stroke="#101519" stroke-width="1.5" fill="none" fill-rule="evenodd"><path stroke-linecap="round" stroke-linejoin="round" d="M14.5 33H1V1h14.286L26 9.623V18.5"/><path d="M5.688 13.308c0 1.275 1.224 2.308 2.734 2.308s2.735-1.033 2.735-2.308C11.157 12.034 9.933 11 8.42 11c-1.51 0-2.733-1.033-2.733-2.307s1.224-2.308 2.734-2.308 2.735 1.034 2.735 2.308M8.421 5v12M15.063 1v9H26M7.25 21.5h9.25M7.25 27.5h6.25" stroke-linecap="round" stroke-linejoin="round"/><path d="M26.5 39.385a8.885 8.885 0 1 0 0-17.77 8.885 8.885 0 0 0 0 17.77Z"/><path stroke-linecap="round" stroke-linejoin="round" d="m23.538 30.52 2.012 1.896 4.334-4.032"/></g></svg>