<?xml version="1.0" encoding="UTF-8"?>
<svg width="125" height="125" xmlns="http://www.w3.org/2000/svg"><g fill="none" fill-rule="evenodd"><rect fill="#F7D169" width="125" height="125" rx="35"/><g fill="#17341A" fill-rule="nonzero" stroke="#17341A" stroke-width=".4"><path d="M85.856 72.024c-7.323 0-13.26 5.863-13.26 13.095s5.937 13.095 13.26 13.095c7.323 0 13.259-5.863 13.259-13.095-.009-7.229-5.94-13.086-13.26-13.095Zm0 23.81c-5.992 0-10.849-4.797-10.849-10.715 0-5.917 4.857-10.714 10.849-10.714 5.991 0 10.848 4.797 10.848 10.714-.006 5.915-4.86 10.708-10.848 10.714ZM52.105 72.024H41.257V59.422l3.556 3.511a1.216 1.216 0 0 0 1.69-.014 1.18 1.18 0 0 0 .014-1.669l-5.613-5.544a1.217 1.217 0 0 0-1.705 0l-5.613 5.544a1.18 1.18 0 0 0 .015 1.669c.465.459 1.216.466 1.69.014l3.555-3.511v12.602H27.998c-.666 0-1.206.533-1.206 1.19v23.81c0 .657.54 1.19 1.206 1.19h24.107c.666 0 1.206-.533 1.206-1.19v-23.81c0-.657-.54-1.19-1.206-1.19ZM50.9 95.834H29.203v-21.43H50.9v21.43ZM63.014 33.495a1.217 1.217 0 0 0-1.172-.324c-.422.109-.75.434-.861.85-.11.417.015.859.329 1.158l3.555 3.512H53.25c-.644-6.972-6.726-12.21-13.807-11.891-7.081.318-12.656 6.08-12.656 13.081 0 7 5.575 12.764 12.656 13.082 7.08.319 13.163-4.92 13.807-11.891h11.616l-3.555 3.512a1.18 1.18 0 0 0-.33 1.157c.111.416.44.741.862.85.421.11.869-.014 1.172-.324l5.613-5.544a1.18 1.18 0 0 0 0-1.683l-5.613-5.545Zm-22.963 17.1c-5.991 0-10.848-4.796-10.848-10.714 0-5.917 4.857-10.714 10.848-10.714 5.992 0 10.849 4.797 10.849 10.714-.007 5.915-4.86 10.708-10.849 10.715ZM99.756 38.96 86.617 28.365a1.216 1.216 0 0 0-1.525 0L71.953 38.96c-.28.226-.442.564-.442.921 0 .357.162.696.442.922L84.65 51.04v14.538l-3.555-3.512a1.216 1.216 0 0 0-1.69.014 1.18 1.18 0 0 0-.015 1.669l5.613 5.544c.471.465 1.234.465 1.705 0l5.614-5.544a1.18 1.18 0 0 0-.015-1.669 1.216 1.216 0 0 0-1.69-.014l-3.556 3.512V51.04l12.695-10.238c.28-.226.442-.565.442-.922 0-.357-.162-.695-.442-.921Zm-13.9 9.978-11.232-9.057 11.232-9.057 11.231 9.057-11.231 9.057Z"/></g></g></svg>