<?xml version="1.0" encoding="UTF-8"?>
<svg width="70" height="70" xmlns="http://www.w3.org/2000/svg"><g fill="none" fill-rule="evenodd"><rect fill="#F7D169" width="70" height="70" rx="18"/><path d="M23 45v6a2 2 0 0 0 2 2h22a2 2 0 0 0 2-2V19a2 2 0 0 0-2-2H25a2 2 0 0 0-2 2v6" stroke="#17341A" stroke-width="2" stroke-linecap="round" stroke-linejoin="round"/><path d="M33 35c0 5.523-4.477 10-10 10s-10-4.477-10-10 4.477-10 10-10a10 10 0 0 1 10 10h0Zm-10-4v4h-2" stroke="#17341A" stroke-width="2" stroke-linecap="round" stroke-linejoin="round"/></g></svg>