<?xml version="1.0" encoding="UTF-8"?>
<svg width="42" height="44" xmlns="http://www.w3.org/2000/svg"><g stroke-width="1.5" fill="none" fill-rule="evenodd" stroke-linejoin="round"><path stroke="#000" stroke-linecap="round" d="M1 9.957h34.783M14.913 30.826H4.478A3.478 3.478 0 0 1 1 27.348V6.478A3.477 3.477 0 0 1 4.478 3h27.826a3.477 3.477 0 0 1 3.479 3.478v10.435"/><path d="M40.87 32.435c0 5.763-4.672 10.435-10.435 10.435C24.67 42.87 20 38.198 20 32.435 20 26.67 24.671 22 30.435 22c5.763 0 10.435 4.671 10.435 10.435Z" stroke="#000"/><path stroke="#000" stroke-linecap="round" stroke-dasharray="1.5,4" d="M6.5 14.5h24M6.5 19.5h24M6.5 24.5h16"/><path stroke="#000" stroke-linecap="round" d="M30 28v6h5"/><path stroke="#0D1318" stroke-linecap="round" d="M26.5 5V1M10.5 5V1"/></g></svg>